<?xml version="1.0" encoding="UTF-8"?><svg width="16pt" height="16pt" style="isolation:isolate" viewBox="0 0 16 16" xmlns="http://www.w3.org/2000/svg"><defs><clipPath id="a"><rect width="16" height="16"/></clipPath></defs><g clip-path="url(#a)"><circle cx="8" cy="3" r="2" fill="#ebebeb" vector-effect="non-scaling-stroke"/><path d="m0 8c0-4.415 3.585-8 8-8s8 3.585 8 8-3.585 8-8 8-8-3.585-8-8zm5 0c0-1.656 1.344-3 3-3s3 1.344 3 3-1.344 3-3 3-3-1.344-3-3z" fill="#444" fill-rule="evenodd"/><path d="m1 8c0-3.863 3.137-7 7-7s7 3.137 7 7-3.137 7-7 7-7-3.137-7-7zm3 0c0-2.208 1.792-4 4-4s4 1.792 4 4-1.792 4-4 4-4-1.792-4-4z" fill="#bbb" fill-rule="evenodd"/><circle cx="8" cy="2.5" r="2.5" fill="#444" vector-effect="non-scaling-stroke"><animateTransform attributeName="transform" begin="0s" dur="0.5s" from="0 8 8" repeatCount="indefinite" to="360 8 8" type="rotate"/></circle><circle cx="8" cy="2.5" r="1.5" fill="#080" vector-effect="non-scaling-stroke"><animateTransform attributeName="transform" begin="0s" dur="0.5s" from="0 8 8" repeatCount="indefinite" to="360 8 8" type="rotate"/></circle></g></svg>