<?xml version="1.0" encoding="UTF-8" standalone="no"?><!-- Generator: Gravit.io --><svg xmlns="http://www.w3.org/2000/svg" xmlns:xlink="http://www.w3.org/1999/xlink" style="isolation:isolate" viewBox="0 0 24 24" width="24pt" height="24pt"><defs><clipPath id="_clipPath_tKUuO4YMNKG6H2KxUsiqfcCLe8pl26ri"><rect width="24" height="24"/></clipPath></defs><g clip-path="url(#_clipPath_tKUuO4YMNKG6H2KxUsiqfcCLe8pl26ri)"><rect width="24" height="24" style="fill:rgb(68,68,68)"/><rect x="2" y="2" width="20" height="20" transform="matrix(1,0,0,1,0,0)" fill="rgb(187,187,187)"/><path d=" M 3 15 L 7 17 L 7 16 L 17 16 L 17 17 L 21 15 L 17 13 L 17 14 L 7 14 L 7 13 L 3 15 Z " fill="rgb(68,68,68)"/><path d=" M 9 21 L 11 17 L 10 17 L 10 7 L 11 7 L 9 3 L 7 7 L 8 7 L 8 17 L 7 17 L 9 21 Z " fill="rgb(255,68,68)"/></g></svg>