<?xml version="1.0" encoding="UTF-8" standalone="no"?><!-- Generator: Gravit.io --><svg xmlns="http://www.w3.org/2000/svg" xmlns:xlink="http://www.w3.org/1999/xlink" style="isolation:isolate" viewBox="0 0 64 64" width="64pt" height="64pt"><defs><clipPath id="_clipPath_qPbWxPNe8vGObZinio8r7hd8SnBEV1kc"><rect width="64" height="64"/></clipPath></defs><g clip-path="url(#_clipPath_qPbWxPNe8vGObZinio8r7hd8SnBEV1kc)"><rect width="64" height="64" style="fill:rgb(68,68,68)"/><rect x="2" y="2" width="60" height="60" transform="matrix(1,0,0,1,0,0)" fill="rgb(187,187,187)"/><path d=" M 54 18 L 58 18 L 52 6 L 46 18 L 50 18 L 50 46 L 36 46 L 36 50 L 54 50 L 54 18 Z " fill="rgb(0,136,0)"/><g><path d=" M 10 54 L 30 54 L 30 39 L 25 34 L 10 34 L 10 54 Z " fill="rgb(0,85,204)"/><rect x="14" y="44" width="12" height="9" transform="matrix(1,0,0,1,0,0)" fill="rgb(238,238,238)"/><rect x="14" y="53" width="12" height="1" transform="matrix(1,0,0,1,0,0)" fill="rgb(255,0,0)"/><rect x="16" y="34" width="8" height="6" transform="matrix(1,0,0,1,0,0)" fill="rgb(238,238,238)"/><rect x="14" y="34" width="2" height="6" transform="matrix(1,0,0,1,0,0)" fill="rgb(0,51,153)"/><rect x="21" y="35" width="2" height="4" transform="matrix(1,0,0,1,0,0)" fill="rgb(0,51,153)"/><rect x="15" y="45" width="10" height="1" transform="matrix(1,0,0,1,0,0)" fill="rgb(170,170,170)"/><rect x="15" y="47" width="10" height="1" transform="matrix(1,0,0,1,0,0)" fill="rgb(170,170,170)"/><rect x="15" y="49" width="10" height="1" transform="matrix(1,0,0,1,0,0)" fill="rgb(170,170,170)"/><rect x="15" y="51" width="10" height="1" transform="matrix(1,0,0,1,0,0)" fill="rgb(170,170,170)"/></g><path d=" M 28.458 52.458 C 26.311 54.656 23.311 56 20 56 C 13.377 56 8 50.623 8 44 L 10 44 L 7 34 L 4 44 L 6 44 C 6 51.727 12.273 58 20 58 C 23.863 58 27.363 56.432 29.867 53.867 L 28.458 52.458 L 28.458 52.458 Z " fill="rgb(68,68,68)"/><path d=" M 11.542 35.542 C 13.689 33.344 16.689 32 20 32 C 26.623 32 32 37.377 32 44 L 32 44 L 30 44 L 33 54 L 36 44 L 34 44 C 34 36.273 27.727 30 20 30 C 16.137 30 12.637 31.568 10.133 34.133 L 11.542 35.542 L 11.542 35.542 Z " fill="rgb(68,68,68)"/></g></svg>