<?xml version="1.0" encoding="UTF-8" standalone="no"?><!-- Generator: Gravit.io --><svg xmlns="http://www.w3.org/2000/svg" xmlns:xlink="http://www.w3.org/1999/xlink" style="isolation:isolate" viewBox="0 0 64 64" width="64pt" height="64pt"><defs><clipPath id="_clipPath_uGLAurip1pp1pS2MBRMD4YcdJWqHLYmC"><rect width="64" height="64"/></clipPath></defs><g clip-path="url(#_clipPath_uGLAurip1pp1pS2MBRMD4YcdJWqHLYmC)"><path d=" M 54 18 L 54 6 L 50 6 L 50 46 L 46.008 46 L 46 42 L 34 48 L 46 54 L 46 50 L 54 50 L 54 18 Z " fill="rgb(68,68,187)"/><rect x="4" y="18" width="28" height="42" transform="matrix(1,0,0,1,0,0)" fill="rgb(136,68,0)"/><rect x="6" y="20" width="24" height="36" transform="matrix(1,0,0,1,0,0)" fill="rgb(238,238,238)"/><clipPath id="_clipPath_khj57jkeKPQwG9I7fFgrfV0ioVVKXyWB"><rect x="6" y="20" width="24" height="36" transform="matrix(1,0,0,1,0,0)" fill="rgb(238,238,238)"/></clipPath><g clip-path="url(#_clipPath_khj57jkeKPQwG9I7fFgrfV0ioVVKXyWB)"><text transform="matrix(0.571,0,0,0.658,7.123,50.35)" style="font-family:'Verdana';font-weight:700;font-size:17px;font-style:normal;fill:#888888;stroke:none;">B64</text><rect x="8" y="22" width="20" height="2" transform="matrix(1,0,0,1,0,0)" fill="rgb(136,136,136)"/></g><rect x="8" y="26" width="20" height="2" transform="matrix(1,0,0,1,0,0)" fill="rgb(136,136,136)"/><rect x="8" y="30" width="20" height="2" transform="matrix(1,0,0,1,0,0)" fill="rgb(136,136,136)"/><rect x="8" y="34" width="20" height="2" transform="matrix(1,0,0,1,0,0)" fill="rgb(136,136,136)"/><rect x="8" y="38" width="20" height="2" transform="matrix(1,0,0,1,0,0)" fill="rgb(136,136,136)"/><path d=" M 12 21 L 24 21 L 24 17 Q 22.013 17 21 17 C 19.987 17 20.005 15 18 15 C 15.995 15 16.004 17 15 17 Q 13.996 17 12 17 L 12 21 Z " fill="rgb(102,102,102)"/><circle vector-effect="non-scaling-stroke" cx="18" cy="16" r="0.5" fill="rgb(187,187,187)"/></g></svg>