<?xml version="1.0" encoding="UTF-8" standalone="no"?><!-- Generator: Gravit.io --><svg xmlns="http://www.w3.org/2000/svg" xmlns:xlink="http://www.w3.org/1999/xlink" style="isolation:isolate" viewBox="0 0 32 32" width="32pt" height="32pt"><defs><clipPath id="_clipPath_jLgUBUyYfHVcUqjpOu85Sh0QkWopBJ1U"><rect width="32" height="32"/></clipPath></defs><g clip-path="url(#_clipPath_jLgUBUyYfHVcUqjpOu85Sh0QkWopBJ1U)"><g><clipPath id="_clipPath_s7J6A2vFQzp0JjQIzXpsR4mDXXt7YOjG"><circle vector-effect="non-scaling-stroke" cx="16.000000000000007" cy="16.000000000000007" r="12" fill="rgb(255,255,255)"/></clipPath><g clip-path="url(#_clipPath_s7J6A2vFQzp0JjQIzXpsR4mDXXt7YOjG)"><g><path d=" M 5.905 4 L 5.905 18.727 L 11.276 18.727 L 16 10.545 L 28 10.545 L 28 4 L 5.905 4 Z " fill="rgb(219,68,55)"/><linearGradient id="_lgradient_2" x1="0.04546688884774425" y1="0.6205648148148147" x2="0.36948096031599087" y2="0.43129739520116295" gradientTransform="matrix(22.095,0,0,14.727,5.905,4)" gradientUnits="userSpaceOnUse"><stop offset="0%" stop-opacity="0.6" style="stop-color:rgb(165,39,20)"/><stop offset="66%" stop-opacity="0" style="stop-color:rgb(165,39,20)"/></linearGradient><path d=" M 5.905 4 L 5.905 18.727 L 11.276 18.727 L 16 10.545 L 28 10.545 L 28 4 L 5.905 4 Z " fill="url(#_lgradient_2)"/></g></g><clipPath id="_clipPath_aNLjxGskYbZ3BMdPMKJ3zL6uYkuLUkeu"><circle vector-effect="non-scaling-stroke" cx="16.000000000000007" cy="16.000000000000007" r="12" fill="rgb(255,255,255)"/></clipPath><g clip-path="url(#_clipPath_aNLjxGskYbZ3BMdPMKJ3zL6uYkuLUkeu)"><path d=" M 11.406 18.68 L 5.975 9.365 L 5.895 9.501 L 11.287 18.746 L 11.406 18.68 Z " fill="rgb(62,39,35)" fill-opacity="0.15"/></g><clipPath id="_clipPath_0g2ErlyWKa27ViEKsxs5rgGyY2xd3r4Y"><circle vector-effect="non-scaling-stroke" cx="16.000000000000007" cy="16.000000000000007" r="12" fill="rgb(255,255,255)"/></clipPath><g clip-path="url(#_clipPath_0g2ErlyWKa27ViEKsxs5rgGyY2xd3r4Y)"><g><path d=" M 4 28 L 15.423 28 L 20.725 22.698 L 20.725 18.727 L 11.276 18.727 L 4 6.247 L 4 28 Z " fill="rgb(15,157,88)"/><linearGradient id="_lgradient_3" x1="0.8387280880554424" y1="0.8777582748244737" x2="0.3886537045591136" y2="0.614111534029206" gradientTransform="matrix(16.725,0,0,21.753,4,6.247)" gradientUnits="userSpaceOnUse"><stop offset="0%" stop-opacity="0.4" style="stop-color:rgb(5,85,36)"/><stop offset="33%" stop-opacity="0" style="stop-color:rgb(5,85,36)"/></linearGradient><path d=" M 4 28 L 15.423 28 L 20.725 22.698 L 20.725 18.727 L 11.276 18.727 L 4 6.247 L 4 28 Z " fill="url(#_lgradient_3)"/></g></g><clipPath id="_clipPath_0mNis6JW5cKgWnW6qlmq30CNjlPGJirE"><circle vector-effect="non-scaling-stroke" cx="16.000000000000007" cy="16.000000000000007" r="12" fill="rgb(255,255,255)"/></clipPath><g clip-path="url(#_clipPath_0mNis6JW5cKgWnW6qlmq30CNjlPGJirE)"><path d=" M 20.615 18.909 L 20.501 18.843 L 15.266 28 L 15.423 28 L 20.619 18.913 L 20.615 18.909 Z " fill="rgb(38,50,56)" fill-opacity="0.15"/></g><clipPath id="_clipPath_iyzJK8Aek7NfwjsbFlWLkcuYb0MRIx8y"><circle vector-effect="non-scaling-stroke" cx="16.000000000000007" cy="16.000000000000007" r="12" fill="rgb(255,255,255)"/></clipPath><g clip-path="url(#_clipPath_iyzJK8Aek7NfwjsbFlWLkcuYb0MRIx8y)"><g><clipPath id="_clipPath_GqGh8OVDP9VmfayEtwfyKOViABj5pzF3"><path d=" M 4 28 L 15.423 28 L 20.725 22.698 L 20.725 18.727 L 11.276 18.727 L 4 6.247 L 4 28 Z " fill="rgb(255,255,255)"/></clipPath><g clip-path="url(#_clipPath_GqGh8OVDP9VmfayEtwfyKOViABj5pzF3)"><g><path d=" M 16 10.545 L 20.725 18.727 L 15.423 28 L 28 28 L 28 10.545 L 16 10.545 Z " fill="rgb(255,205,64)"/><linearGradient id="_lgradient_4" x1="0.3262495934077849" y1="-0.048406249999999984" x2="0.4436197201879323" y2="0.465545470575885" gradientTransform="matrix(12.577,0,0,17.455,15.423,10.545)" gradientUnits="userSpaceOnUse"><stop offset="0%" stop-opacity="0.3" style="stop-color:rgb(234,97,0)"/><stop offset="66%" stop-opacity="0" style="stop-color:rgb(234,97,0)"/></linearGradient><path d=" M 16 10.545 L 20.725 18.727 L 15.423 28 L 28 28 L 28 10.545 L 16 10.545 Z " fill="url(#_lgradient_4)"/></g></g></g></g><clipPath id="_clipPath_Of64H2qdiNNUcUSD5mtLI4R3gb978bMr"><circle vector-effect="non-scaling-stroke" cx="16.000000000000007" cy="16.000000000000007" r="12" fill="rgb(255,255,255)"/></clipPath><g clip-path="url(#_clipPath_Of64H2qdiNNUcUSD5mtLI4R3gb978bMr)"><g><path d=" M 16 10.545 L 20.725 18.727 L 15.423 28 L 28 28 L 28 10.545 L 16 10.545 Z " fill="rgb(255,205,64)"/><linearGradient id="_lgradient_5" x1="0.3262495934077849" y1="-0.048406249999999984" x2="0.4436197201879323" y2="0.465545470575885" gradientTransform="matrix(12.577,0,0,17.455,15.423,10.545)" gradientUnits="userSpaceOnUse"><stop offset="0%" stop-opacity="0.3" style="stop-color:rgb(234,97,0)"/><stop offset="66%" stop-opacity="0" style="stop-color:rgb(234,97,0)"/></linearGradient><path d=" M 16 10.545 L 20.725 18.727 L 15.423 28 L 28 28 L 28 10.545 L 16 10.545 Z " fill="url(#_lgradient_5)"/></g></g><clipPath id="_clipPath_olHAu1pmDSMwC5YZn8JcFYCBF0xy4B17"><circle vector-effect="non-scaling-stroke" cx="16.000000000000007" cy="16.000000000000007" r="12" fill="rgb(255,255,255)"/></clipPath><g clip-path="url(#_clipPath_olHAu1pmDSMwC5YZn8JcFYCBF0xy4B17)"><g><clipPath id="_clipPath_WBYsXoZguMOHxPsRwBo79gNhIYdkahax"><path d=" M 16 10.545 L 20.725 18.727 L 15.423 28 L 28 28 L 28 10.545 L 16 10.545 Z " fill="rgb(255,255,255)"/></clipPath><g clip-path="url(#_clipPath_WBYsXoZguMOHxPsRwBo79gNhIYdkahax)"><g><path d=" M 5.905 4 L 5.905 18.727 L 11.276 18.727 L 16 10.545 L 28 10.545 L 28 4 L 5.905 4 Z " fill="rgb(219,68,55)"/><linearGradient id="_lgradient_6" x1="0.04546688884774425" y1="0.6205648148148147" x2="0.36948096031599087" y2="0.43129739520116295" gradientTransform="matrix(22.095,0,0,14.727,5.905,4)" gradientUnits="userSpaceOnUse"><stop offset="0%" stop-opacity="0.6" style="stop-color:rgb(165,39,20)"/><stop offset="66%" stop-opacity="0" style="stop-color:rgb(165,39,20)"/></linearGradient><path d=" M 5.905 4 L 5.905 18.727 L 11.276 18.727 L 16 10.545 L 28 10.545 L 28 4 L 5.905 4 Z " fill="url(#_lgradient_6)"/></g></g></g></g><clipPath id="_clipPath_4JafHA7ihEOjeA4UjSJiJECt89PyHqMh"><circle vector-effect="non-scaling-stroke" cx="16.000000000000007" cy="16.000000000000007" r="12" fill="rgb(255,255,255)"/></clipPath><g clip-path="url(#_clipPath_4JafHA7ihEOjeA4UjSJiJECt89PyHqMh)"><radialGradient id="_rgradient_0" fx="-0.048724489795918924" fy="-0.002482100238663687" cx="-0.048724489795918924" cy="-0.002482100238663687" r="1" gradientTransform="matrix(10.691,0,0,2.857,16,10.545)" gradientUnits="userSpaceOnUse"><stop offset="0%" stop-opacity="0.2" style="stop-color:rgb(62,39,35)"/><stop offset="100%" stop-opacity="0" style="stop-color:rgb(62,39,35)"/></radialGradient><path d=" M 16 10.545 L 16 13.402 L 26.691 10.545 L 16 10.545 Z " fill="url(#_rgradient_0)"/></g><clipPath id="_clipPath_r5q39uv8FgJV0KoAM2sGnZ0xciEXneeT"><circle vector-effect="non-scaling-stroke" cx="16.000000000000007" cy="16.000000000000007" r="12" fill="rgb(255,255,255)"/></clipPath><g clip-path="url(#_clipPath_r5q39uv8FgJV0KoAM2sGnZ0xciEXneeT)"><g><clipPath id="_clipPath_G6tZG9onwyWrRasBhfqNt87tvDORi9QG"><path d=" M 5.905 4 L 5.905 9.501 L 11.276 18.727 L 16 10.545 L 28 10.545 L 28 4 L 5.905 4 Z " fill="rgb(255,255,255)"/></clipPath><g clip-path="url(#_clipPath_G6tZG9onwyWrRasBhfqNt87tvDORi9QG)"><g><path d=" M 4 28 L 15.423 28 L 20.725 22.698 L 20.725 18.727 L 11.276 18.727 L 4 6.247 L 4 28 Z " fill="rgb(15,157,88)"/><linearGradient id="_lgradient_7" x1="0.8387280880554424" y1="0.8777582748244737" x2="0.3886537045591136" y2="0.614111534029206" gradientTransform="matrix(16.725,0,0,21.753,4,6.247)" gradientUnits="userSpaceOnUse"><stop offset="0%" stop-opacity="0.4" style="stop-color:rgb(5,85,36)"/><stop offset="33%" stop-opacity="0" style="stop-color:rgb(5,85,36)"/></linearGradient><path d=" M 4 28 L 15.423 28 L 20.725 22.698 L 20.725 18.727 L 11.276 18.727 L 4 6.247 L 4 28 Z " fill="url(#_lgradient_7)"/></g></g></g></g><clipPath id="_clipPath_LmmgdAjHWVWMLpOMjTMgf4enu7uq4If2"><circle vector-effect="non-scaling-stroke" cx="16.000000000000007" cy="16.000000000000007" r="12" fill="rgb(255,255,255)"/></clipPath><g clip-path="url(#_clipPath_LmmgdAjHWVWMLpOMjTMgf4enu7uq4If2)"><radialGradient id="_rgradient_1" fx="-0.001572052401746793" fy="0.0010362694300517505" cx="-0.001572052401746793" cy="0.0010362694300517505" r="1" gradientTransform="matrix(7.807,0,0,9.211,5.905,9.516)" gradientUnits="userSpaceOnUse"><stop offset="0%" stop-opacity="0.2" style="stop-color:rgb(62,39,35)"/><stop offset="100%" stop-opacity="0" style="stop-color:rgb(62,39,35)"/></radialGradient><path d=" M 5.905 9.516 L 13.712 17.321 L 11.276 18.727 L 5.905 9.516 Z " fill="url(#_rgradient_1)"/></g><clipPath id="_clipPath_zkUrIVAYWLTwZCz4DPrw4ICgPaGGiMUM"><circle vector-effect="non-scaling-stroke" cx="16.000000000000007" cy="16.000000000000007" r="12" fill="rgb(255,255,255)"/></clipPath><g clip-path="url(#_clipPath_zkUrIVAYWLTwZCz4DPrw4ICgPaGGiMUM)"><radialGradient id="_rgradient_2" fx="0.10329726944873885" fy="-0.12214833759590782" cx="0.10329726944873885" cy="-0.12214833759590782" r="1" gradientTransform="matrix(5.294,0,0,10.664,15.431,17.321)" gradientUnits="userSpaceOnUse"><stop offset="0%" stop-opacity="0.2" style="stop-color:rgb(38,50,56)"/><stop offset="100%" stop-opacity="0" style="stop-color:rgb(38,50,56)"/></radialGradient><path d=" M 15.431 27.985 L 18.29 17.321 L 20.725 18.727 L 15.431 27.985 Z " fill="url(#_rgradient_2)"/></g><clipPath id="_clipPath_hsISeQDG1thYyodRWKUBJ6PQgXd1XRli"><circle vector-effect="non-scaling-stroke" cx="16.000000000000007" cy="16.000000000000007" r="12" fill="rgb(255,255,255)"/></clipPath><g clip-path="url(#_clipPath_hsISeQDG1thYyodRWKUBJ6PQgXd1XRli)"><g><circle vector-effect="non-scaling-stroke" cx="16.000000000000007" cy="16.000000000000007" r="5.454545454545453" fill="rgb(241,241,241)"/><circle vector-effect="non-scaling-stroke" cx="16.000000000000007" cy="16.000000000000007" r="4.363636363636363" fill="rgb(66,133,244)"/></g></g><clipPath id="_clipPath_O2xMl7DZX0evFznuDYZ8kvVvR379Ai01"><circle vector-effect="non-scaling-stroke" cx="16.000000000000007" cy="16.000000000000007" r="12" fill="rgb(255,255,255)"/></clipPath><g clip-path="url(#_clipPath_O2xMl7DZX0evFznuDYZ8kvVvR379Ai01)"><g><path d=" M 16 10.409 C 12.988 10.409 10.545 12.851 10.545 15.864 L 10.545 16 C 10.545 12.988 12.988 10.545 16 10.545 L 28 10.545 L 28 10.409 L 16 10.409 Z " fill="rgb(62,39,35)" fill-opacity="0.2"/><path d=" M 20.718 18.727 C 19.775 20.355 18.017 21.455 16 21.455 C 13.982 21.455 12.224 20.355 11.28 18.727 L 11.275 18.727 L 4 6.247 L 4 6.384 L 11.276 18.864 L 11.282 18.864 C 12.225 20.492 13.983 21.591 16.001 21.591 C 18.018 21.591 19.776 20.493 20.72 18.864 L 20.726 18.864 L 20.726 18.727 L 20.718 18.727 Z " fill="rgb(255,255,255)" fill-opacity="0.1"/><g opacity="0.1"><path d=" M 16.136 10.545 C 16.113 10.545 16.091 10.548 16.068 10.55 C 19.049 10.586 21.455 13.011 21.455 16 C 21.455 18.989 19.049 21.414 16.068 21.45 C 16.091 21.45 16.113 21.455 16.136 21.455 C 19.149 21.455 21.591 19.012 21.591 16 C 21.591 12.988 19.149 10.545 16.136 10.545 Z " fill="rgb(62,39,35)"/></g><path d=" M 20.773 18.909 C 21.236 18.107 21.505 17.18 21.505 16.187 C 21.505 15.611 21.415 15.058 21.25 14.538 C 21.38 15.005 21.455 15.494 21.455 16.001 C 21.455 16.994 21.186 17.921 20.722 18.723 L 20.725 18.729 L 15.423 28.001 L 15.581 28.001 L 20.775 18.914 L 20.773 18.909 L 20.773 18.909 Z " fill="rgb(255,255,255)" fill-opacity="0.2"/></g></g><clipPath id="_clipPath_lv6UXqw0kR9LGSnldjfujlYJWkffaLJZ"><circle vector-effect="non-scaling-stroke" cx="16.000000000000007" cy="16.000000000000007" r="12" fill="rgb(255,255,255)"/></clipPath><g clip-path="url(#_clipPath_lv6UXqw0kR9LGSnldjfujlYJWkffaLJZ)"><g><path d=" M 16 4.136 C 22.604 4.136 27.962 9.472 27.999 16.068 C 27.999 16.045 28 16.023 28 16 C 28 9.373 22.627 4 16 4 C 9.373 4 4 9.373 4 16 C 4 16.023 4.001 16.045 4.001 16.068 C 4.038 9.472 9.396 4.136 16 4.136 Z " fill="rgb(255,255,255)" fill-opacity="0.2"/><path d=" M 16 27.864 C 22.604 27.864 27.962 22.528 27.999 15.932 C 27.999 15.955 28 15.977 28 16 C 28 22.627 22.627 28 16 28 C 9.373 28 4 22.627 4 16 C 4 15.977 4.001 15.955 4.001 15.932 C 4.038 22.528 9.396 27.864 16 27.864 Z " fill="rgb(62,39,35)" fill-opacity="0.15"/></g></g><radialGradient id="_rgradient_3" fx="0.14935227272727275" fy="0.13644318181818185" cx="0.14935227272727275" cy="0.13644318181818185" r="1" gradientTransform="matrix(24,0,0,24,4,4)" gradientUnits="userSpaceOnUse"><stop offset="0%" stop-opacity="0.1" style="stop-color:rgb(255,255,255)"/><stop offset="100%" stop-opacity="0" style="stop-color:rgb(255,255,255)"/></radialGradient><circle vector-effect="non-scaling-stroke" cx="15.999999999999998" cy="15.999999999999998" r="11.999999999999998" fill="url(#_rgradient_3)"/></g></g></svg>