<?xml version="1.0" encoding="UTF-8" standalone="no"?><!-- Generator: Gravit.io --><svg xmlns="http://www.w3.org/2000/svg" xmlns:xlink="http://www.w3.org/1999/xlink" style="isolation:isolate" viewBox="0 0 64 64" width="64pt" height="64pt"><defs><clipPath id="_clipPath_3TczmWcgLDlnIE6ZT3J3CedNKesE8xCP"><rect width="64" height="64"/></clipPath></defs><g clip-path="url(#_clipPath_3TczmWcgLDlnIE6ZT3J3CedNKesE8xCP)"><rect width="64" height="64" style="fill:rgb(68,68,68)"/><rect x="2" y="2" width="60" height="60" transform="matrix(1,0,0,1,0,0)" fill="rgb(187,187,187)"/><path d=" M 54 18 L 54 6 L 50 6 L 50 46 L 46.008 46 L 46 42 L 34 48 L 46 54 L 46 50 L 54 50 L 54 18 Z " fill="rgb(68,68,187)"/><g><g><clipPath id="_clipPath_1sc1DiDzcq8cN84qKC0mGZUsu72kMBq9"><circle vector-effect="non-scaling-stroke" cx="18" cy="46.00000000000001" r="13.999999999999993" fill="rgb(255,255,255)"/></clipPath><g clip-path="url(#_clipPath_1sc1DiDzcq8cN84qKC0mGZUsu72kMBq9)"><g><g><path d=" M 6.222 32 L 6.222 49.182 L 12.489 49.182 L 18 39.636 L 32 39.636 L 32 32 L 6.222 32 Z " fill="rgb(219,68,55)"/><linearGradient id="_lgradient_0" x1="0.04546688884774425" y1="0.6205648148148148" x2="0.369480960315991" y2="0.4944122332963604" gradientTransform="matrix(25.777,0,0,17.181,6.222,32)" gradientUnits="userSpaceOnUse"><stop offset="0%" stop-opacity="0.6" style="stop-color:rgb(165,39,20)"/><stop offset="66%" stop-opacity="0" style="stop-color:rgb(165,39,20)"/></linearGradient><path d=" M 6.222 32 L 6.222 49.182 L 12.489 49.182 L 18 39.636 L 32 39.636 L 32 32 L 6.222 32 Z " fill="url(#_lgradient_0)"/></g></g></g><clipPath id="_clipPath_MC81N460dglYmOSFZ52Z7q2xBg7B1oaX"><circle vector-effect="non-scaling-stroke" cx="18" cy="46.00000000000001" r="13.999999999999993" fill="rgb(255,255,255)"/></clipPath><g clip-path="url(#_clipPath_MC81N460dglYmOSFZ52Z7q2xBg7B1oaX)"><g><path d=" M 12.64 49.127 L 6.304 38.259 L 6.211 38.418 L 12.501 49.204 L 12.64 49.127 Z " fill="rgb(62,39,35)" fill-opacity="0.15"/></g></g><clipPath id="_clipPath_s8FvJ4Tekh1skMbnLVmdPyBsFEkNhQaH"><circle vector-effect="non-scaling-stroke" cx="18" cy="46.00000000000001" r="13.999999999999993" fill="rgb(255,255,255)"/></clipPath><g clip-path="url(#_clipPath_s8FvJ4Tekh1skMbnLVmdPyBsFEkNhQaH)"><g><g><path d=" M 4 60 L 17.327 60 L 23.512 53.814 L 23.512 49.182 L 12.489 49.182 L 4 34.622 L 4 60 Z " fill="rgb(15,157,88)"/><linearGradient id="_lgradient_1" x1="0.8387280880554425" y1="0.8777582748244734" x2="0.42381993368830156" y2="0.5616447223607737" gradientTransform="matrix(19.512,0,0,25.378,4,34.622)" gradientUnits="userSpaceOnUse"><stop offset="0%" stop-opacity="0.4" style="stop-color:rgb(5,85,36)"/><stop offset="33%" stop-opacity="0" style="stop-color:rgb(5,85,36)"/></linearGradient><path d=" M 4 60 L 17.327 60 L 23.512 53.814 L 23.512 49.182 L 12.489 49.182 L 4 34.622 L 4 60 Z " fill="url(#_lgradient_1)"/></g></g></g><clipPath id="_clipPath_heXIgJE9cUMKV0Qxpt29FzYNA5NxzYJ4"><circle vector-effect="non-scaling-stroke" cx="18" cy="46.00000000000001" r="13.999999999999993" fill="rgb(255,255,255)"/></clipPath><g clip-path="url(#_clipPath_heXIgJE9cUMKV0Qxpt29FzYNA5NxzYJ4)"><g><path d=" M 23.384 49.394 L 23.251 49.317 L 17.144 60 L 17.327 60 L 23.389 49.399 L 23.384 49.394 Z " fill="rgb(38,50,56)" fill-opacity="0.15"/></g></g><clipPath id="_clipPath_FemFZpVtYPA4XWtir0vmxWHmceACszS5"><circle vector-effect="non-scaling-stroke" cx="18" cy="46.00000000000001" r="13.999999999999993" fill="rgb(255,255,255)"/></clipPath><g clip-path="url(#_clipPath_FemFZpVtYPA4XWtir0vmxWHmceACszS5)"><g><g><clipPath id="_clipPath_8qt08QK1ek9EDrscBZNMBiVKdjZHgngO"><path d=" M 4 60 L 17.327 60 L 23.512 53.814 L 23.512 49.182 L 12.489 49.182 L 4 34.622 L 4 60 Z " fill="rgb(255,255,255)"/></clipPath><g clip-path="url(#_clipPath_8qt08QK1ek9EDrscBZNMBiVKdjZHgngO)"><g><g><path d=" M 18 39.636 L 23.512 49.182 L 17.327 60 L 32 60 L 32 39.636 L 18 39.636 Z " fill="rgb(255,205,64)"/><linearGradient id="_lgradient_2" x1="0.32624959340778514" y1="-0.048406249999999984" x2="0.41184544487572045" y2="0.4717816660022647" gradientTransform="matrix(14.673,0,0,20.364,17.327,39.636)" gradientUnits="userSpaceOnUse"><stop offset="0%" stop-opacity="0.3" style="stop-color:rgb(234,97,0)"/><stop offset="66%" stop-opacity="0" style="stop-color:rgb(234,97,0)"/></linearGradient><path d=" M 18 39.636 L 23.512 49.182 L 17.327 60 L 32 60 L 32 39.636 L 18 39.636 Z " fill="url(#_lgradient_2)"/></g></g></g></g></g></g><clipPath id="_clipPath_IJL056uWw69qBJS28GmS7abksYhx3g3M"><circle vector-effect="non-scaling-stroke" cx="18" cy="46.00000000000001" r="13.999999999999993" fill="rgb(255,255,255)"/></clipPath><g clip-path="url(#_clipPath_IJL056uWw69qBJS28GmS7abksYhx3g3M)"><g><g><path d=" M 18 39.636 L 23.512 49.182 L 17.327 60 L 32 60 L 32 39.636 L 18 39.636 Z " fill="rgb(255,205,64)"/><linearGradient id="_lgradient_3" x1="0.32624959340778514" y1="-0.048406249999999984" x2="0.41184544487572045" y2="0.4717816660022647" gradientTransform="matrix(14.673,0,0,20.364,17.327,39.636)" gradientUnits="userSpaceOnUse"><stop offset="0%" stop-opacity="0.3" style="stop-color:rgb(234,97,0)"/><stop offset="66%" stop-opacity="0" style="stop-color:rgb(234,97,0)"/></linearGradient><path d=" M 18 39.636 L 23.512 49.182 L 17.327 60 L 32 60 L 32 39.636 L 18 39.636 Z " fill="url(#_lgradient_3)"/></g></g></g><clipPath id="_clipPath_eO1WkZO3svVIeO43UCM76sLfJ40SdsUQ"><circle vector-effect="non-scaling-stroke" cx="18" cy="46.00000000000001" r="13.999999999999993" fill="rgb(255,255,255)"/></clipPath><g clip-path="url(#_clipPath_eO1WkZO3svVIeO43UCM76sLfJ40SdsUQ)"><g><g><clipPath id="_clipPath_11GdDO2iTm4DbKkGReGOP2ZsSMTDq4U6"><path d=" M 18 39.636 L 23.512 49.182 L 17.327 60 L 32 60 L 32 39.636 L 18 39.636 Z " fill="rgb(255,255,255)"/></clipPath><g clip-path="url(#_clipPath_11GdDO2iTm4DbKkGReGOP2ZsSMTDq4U6)"><g><g><path d=" M 6.222 32 L 6.222 49.182 L 12.489 49.182 L 18 39.636 L 32 39.636 L 32 32 L 6.222 32 Z " fill="rgb(219,68,55)"/><linearGradient id="_lgradient_4" x1="0.04546688884774425" y1="0.6205648148148148" x2="0.369480960315991" y2="0.4944122332963604" gradientTransform="matrix(25.777,0,0,17.181,6.222,32)" gradientUnits="userSpaceOnUse"><stop offset="0%" stop-opacity="0.6" style="stop-color:rgb(165,39,20)"/><stop offset="66%" stop-opacity="0" style="stop-color:rgb(165,39,20)"/></linearGradient><path d=" M 6.222 32 L 6.222 49.182 L 12.489 49.182 L 18 39.636 L 32 39.636 L 32 32 L 6.222 32 Z " fill="url(#_lgradient_4)"/></g></g></g></g></g></g><clipPath id="_clipPath_52cUxNta4AylT7wRh2BLPZKIOMYUTprQ"><circle vector-effect="non-scaling-stroke" cx="18" cy="46.00000000000001" r="13.999999999999993" fill="rgb(255,255,255)"/></clipPath><g clip-path="url(#_clipPath_52cUxNta4AylT7wRh2BLPZKIOMYUTprQ)"><g><radialGradient id="_rgradient_0" fx="-0.048724489795918924" fy="-0.002482100238663687" cx="-0.048724489795918924" cy="-0.002482100238663687" r="1" gradientTransform="matrix(12.473,0,0,3.333,18,39.636)" gradientUnits="userSpaceOnUse"><stop offset="0%" stop-opacity="0.2" style="stop-color:rgb(62,39,35)"/><stop offset="100%" stop-opacity="0" style="stop-color:rgb(62,39,35)"/></radialGradient><path d=" M 18 39.636 L 18 42.969 L 30.473 39.636 L 18 39.636 Z " fill="url(#_rgradient_0)"/></g></g><clipPath id="_clipPath_ebUvEAarsRRSTifKXrbiJWmuoo08vXPu"><circle vector-effect="non-scaling-stroke" cx="18" cy="46.00000000000001" r="13.999999999999993" fill="rgb(255,255,255)"/></clipPath><g clip-path="url(#_clipPath_ebUvEAarsRRSTifKXrbiJWmuoo08vXPu)"><g><g><clipPath id="_clipPath_88oMulUaR0uuTohTgV5U0C4ZXNXJqAfU"><path d=" M 6.222 32 L 6.222 38.418 L 12.489 49.182 L 18 39.636 L 32 39.636 L 32 32 L 6.222 32 Z " fill="rgb(255,255,255)"/></clipPath><g clip-path="url(#_clipPath_88oMulUaR0uuTohTgV5U0C4ZXNXJqAfU)"><g><g><path d=" M 4 60 L 17.327 60 L 23.512 53.814 L 23.512 49.182 L 12.489 49.182 L 4 34.622 L 4 60 Z " fill="rgb(15,157,88)"/><linearGradient id="_lgradient_5" x1="0.8387280880554425" y1="0.8777582748244734" x2="0.42381993368830156" y2="0.5616447223607737" gradientTransform="matrix(19.512,0,0,25.378,4,34.622)" gradientUnits="userSpaceOnUse"><stop offset="0%" stop-opacity="0.4" style="stop-color:rgb(5,85,36)"/><stop offset="33%" stop-opacity="0" style="stop-color:rgb(5,85,36)"/></linearGradient><path d=" M 4 60 L 17.327 60 L 23.512 53.814 L 23.512 49.182 L 12.489 49.182 L 4 34.622 L 4 60 Z " fill="url(#_lgradient_5)"/></g></g></g></g></g></g><clipPath id="_clipPath_ipqm38F6mqEN6si2hptgfvVMb3x8CtDX"><circle vector-effect="non-scaling-stroke" cx="18" cy="46.00000000000001" r="13.999999999999993" fill="rgb(255,255,255)"/></clipPath><g clip-path="url(#_clipPath_ipqm38F6mqEN6si2hptgfvVMb3x8CtDX)"><g><radialGradient id="_rgradient_1" fx="-0.0015720524017468485" fy="0.0010362694300516395" cx="-0.0015720524017468485" cy="0.0010362694300516395" r="1" gradientTransform="matrix(9.108,0,0,10.746,6.222,38.435)" gradientUnits="userSpaceOnUse"><stop offset="0%" stop-opacity="0.2" style="stop-color:rgb(62,39,35)"/><stop offset="100%" stop-opacity="0" style="stop-color:rgb(62,39,35)"/></radialGradient><path d=" M 6.222 38.435 L 15.331 47.541 L 12.489 49.182 L 6.222 38.435 Z " fill="url(#_rgradient_1)"/></g></g><clipPath id="_clipPath_61OGZmF3WTGIuZn00x4puJIXlbGx9a0D"><circle vector-effect="non-scaling-stroke" cx="18" cy="46.00000000000001" r="13.999999999999993" fill="rgb(255,255,255)"/></clipPath><g clip-path="url(#_clipPath_61OGZmF3WTGIuZn00x4puJIXlbGx9a0D)"><g><radialGradient id="_rgradient_2" fx="0.10329726944873885" fy="-0.12214833759590804" cx="0.10329726944873885" cy="-0.12214833759590804" r="1" gradientTransform="matrix(6.176,0,0,12.441,17.336,47.541)" gradientUnits="userSpaceOnUse"><stop offset="0%" stop-opacity="0.2" style="stop-color:rgb(38,50,56)"/><stop offset="100%" stop-opacity="0" style="stop-color:rgb(38,50,56)"/></radialGradient><path d=" M 17.336 59.982 L 20.672 47.541 L 23.512 49.182 L 17.336 59.982 Z " fill="url(#_rgradient_2)"/></g></g><clipPath id="_clipPath_4Ae027Cd3sa5zUsZXs22Ko7oWsD5ir8L"><circle vector-effect="non-scaling-stroke" cx="18" cy="46.00000000000001" r="13.999999999999993" fill="rgb(255,255,255)"/></clipPath><g clip-path="url(#_clipPath_4Ae027Cd3sa5zUsZXs22Ko7oWsD5ir8L)"><g><g><circle vector-effect="non-scaling-stroke" cx="18" cy="46.00000000000001" r="6.36363636363636" fill="rgb(241,241,241)"/><circle vector-effect="non-scaling-stroke" cx="18" cy="46.00000000000001" r="5.090909090909087" fill="rgb(66,133,244)"/></g></g></g><clipPath id="_clipPath_xv97NE63uxnSBwwKluMRlMQoLTJTnv6V"><circle vector-effect="non-scaling-stroke" cx="18" cy="46.00000000000001" r="13.999999999999993" fill="rgb(255,255,255)"/></clipPath><g clip-path="url(#_clipPath_xv97NE63uxnSBwwKluMRlMQoLTJTnv6V)"><g><g><path d=" M 18 39.477 C 14.486 39.477 11.636 42.326 11.636 45.841 L 11.636 46 C 11.636 42.486 14.486 39.636 18 39.636 L 32 39.636 L 32 39.477 L 18 39.477 Z " fill="rgb(62,39,35)" fill-opacity="0.2"/><path d=" M 23.504 49.182 C 22.404 51.081 20.353 52.364 18 52.364 C 15.646 52.364 13.595 51.081 12.493 49.182 L 12.487 49.182 L 4 34.622 L 4 34.781 L 12.489 49.341 L 12.496 49.341 C 13.596 51.241 15.647 52.523 18.001 52.523 C 20.354 52.523 22.405 51.242 23.507 49.341 L 23.514 49.341 L 23.514 49.182 L 23.504 49.182 Z " fill="rgb(255,255,255)" fill-opacity="0.1"/><g style="opacity:0.1;"><g opacity="0.1"><path d=" M 18.159 39.636 C 18.132 39.636 18.106 39.639 18.079 39.642 C 21.557 39.684 24.364 42.513 24.364 46 C 24.364 49.487 21.557 52.316 18.079 52.358 C 18.106 52.358 18.132 52.364 18.159 52.364 C 21.674 52.364 24.523 49.514 24.523 46 C 24.523 42.486 21.674 39.636 18.159 39.636 Z " fill="rgb(62,39,35)"/></g></g><path d=" M 23.568 49.394 C 24.109 48.458 24.422 47.377 24.422 46.218 C 24.422 45.546 24.317 44.901 24.125 44.294 C 24.277 44.839 24.364 45.41 24.364 46.001 C 24.364 47.16 24.05 48.241 23.509 49.177 L 23.512 49.184 L 17.327 60.001 L 17.511 60.001 L 23.571 49.4 L 23.568 49.394 L 23.568 49.394 Z " fill="rgb(255,255,255)" fill-opacity="0.2"/></g></g></g><clipPath id="_clipPath_0UbX9jvI2pQAgQ6een4lnsLTbKyvEId6"><circle vector-effect="non-scaling-stroke" cx="18" cy="46.00000000000001" r="13.999999999999993" fill="rgb(255,255,255)"/></clipPath><g clip-path="url(#_clipPath_0UbX9jvI2pQAgQ6een4lnsLTbKyvEId6)"><g><g><path d=" M 18 32.159 C 25.705 32.159 31.956 38.384 31.999 46.079 C 31.999 46.052 32 46.027 32 46 C 32 38.268 25.731 32 18 32 C 10.268 32 4 38.268 4 46 C 4 46.027 4.001 46.052 4.001 46.079 C 4.044 38.384 10.295 32.159 18 32.159 Z " fill="rgb(255,255,255)" fill-opacity="0.2"/><path d=" M 18 59.841 C 25.705 59.841 31.956 53.616 31.999 45.921 C 31.999 45.948 32 45.973 32 46 C 32 53.732 25.731 60 18 60 C 10.268 60 4 53.732 4 46 C 4 45.973 4.001 45.948 4.001 45.921 C 4.044 53.616 10.295 59.841 18 59.841 Z " fill="rgb(62,39,35)" fill-opacity="0.15"/></g></g></g><radialGradient id="_rgradient_3" fx="0.1493522727272728" fy="0.13644318181818188" cx="0.1493522727272728" cy="0.13644318181818188" r="1" gradientTransform="matrix(28,0,0,28,4,32)" gradientUnits="userSpaceOnUse"><stop offset="0%" stop-opacity="0.1" style="stop-color:rgb(255,255,255)"/><stop offset="100%" stop-opacity="0" style="stop-color:rgb(255,255,255)"/></radialGradient><circle vector-effect="non-scaling-stroke" cx="17.999999999999986" cy="45.99999999999999" r="13.99999999999999" fill="url(#_rgradient_3)"/></g></g></g></svg>