<?xml version="1.0" encoding="UTF-8" standalone="no"?><!-- Generator: Gravit.io --><svg xmlns="http://www.w3.org/2000/svg" xmlns:xlink="http://www.w3.org/1999/xlink" style="isolation:isolate" viewBox="0 0 32 32" width="32pt" height="32pt"><defs><clipPath id="_clipPath_mZP7tzFR8ZgjZ0J6iAg1mztW5wQgcinp"><rect width="32" height="32"/></clipPath></defs><g clip-path="url(#_clipPath_mZP7tzFR8ZgjZ0J6iAg1mztW5wQgcinp)"><rect width="32" height="32" style="fill:rgb(68,68,68)"/><rect x="2" y="2" width="28" height="28" transform="matrix(1,0,0,1,0,0)" fill="rgb(187,187,187)"/><path d=" M 9 27 L 11 28 L 21 28 L 23 27 L 23 9 L 9 9 L 9 27 Z " fill="rgb(68,68,68)"/><path d=" M 7 8 L 25 8 L 24 6 L 11.945 6 L 8 6 L 7 8 Z " fill="rgb(68,68,68)"/><path d=" M 17 5 L 18 6 L 20 6 L 18 4 L 14 4 L 12 6 L 14 6 L 15 5" fill="rgb(68,68,68)"/><rect x="11" y="11" width="2" height="14" transform="matrix(1,0,0,1,0,0)" fill="rgb(136,136,136)"/><rect x="15" y="11" width="2" height="14" transform="matrix(1,0,0,1,0,0)" fill="rgb(136,136,136)"/><rect x="19" y="11" width="2" height="14" transform="matrix(1,0,0,1,0,0)" fill="rgb(136,136,136)"/></g></svg>