<?xml version="1.0" encoding="UTF-8" standalone="no"?><!-- Generator: Gravit.io --><svg xmlns="http://www.w3.org/2000/svg" xmlns:xlink="http://www.w3.org/1999/xlink" style="isolation:isolate" viewBox="0 0 32 32" width="32pt" height="32pt"><defs><clipPath id="_clipPath_ZUzKVgNgDUGZ1ImdVysMTw9JAlF6oki8"><rect width="32" height="32"/></clipPath></defs><g clip-path="url(#_clipPath_ZUzKVgNgDUGZ1ImdVysMTw9JAlF6oki8)"><rect width="32" height="32" style="fill:rgb(68,68,68)"/><rect x="2" y="2" width="28" height="28" transform="matrix(1,0,0,1,0,0)" fill="rgb(187,187,187)"/><path d=" M 17 17 L 17 9 L 5 9 L 5 5 L 17 5 L 21 5 L 21 17 L 21 21 L 9 21 L 9 17 L 17 17 Z  M 5 21 L 5 9 L 9 9 L 9 21 L 5 21 Z " fill-rule="evenodd" fill="rgb(136,0,136)"/><path d=" M 23 23 L 23 15 L 11 15 L 11 11 L 23 11 L 27 11 L 27 23 L 27 27 L 15 27 L 15 23 L 23 23 Z  M 11 27 L 11 15 L 15 15 L 15 27 L 11 27 Z " fill-rule="evenodd" fill="rgb(187,0,255)"/></g></svg>