<?xml version="1.0" encoding="UTF-8" standalone="no"?><!-- Generator: Gravit.io --><svg xmlns="http://www.w3.org/2000/svg" xmlns:xlink="http://www.w3.org/1999/xlink" style="isolation:isolate" viewBox="0 0 32 32" width="32pt" height="32pt"><defs><clipPath id="_clipPath_tilmpt5kEJcz1z2D6GHLn5KxxFKT3r3z"><rect width="32" height="32"/></clipPath></defs><g clip-path="url(#_clipPath_tilmpt5kEJcz1z2D6GHLn5KxxFKT3r3z)"><circle vector-effect="non-scaling-stroke" cx="20" cy="12" r="9" fill="rgb(0,68,187)"/><clipPath id="_clipPath_bqA6oIO41Lbc4A8XnOrugtdDsKiTHYDu"><circle vector-effect="non-scaling-stroke" cx="20" cy="12" r="9" fill="rgb(0,68,187)"/></clipPath><g clip-path="url(#_clipPath_bqA6oIO41Lbc4A8XnOrugtdDsKiTHYDu)"><linearGradient id="_lgradient_0" x1="0.6535957790944851" y1="0.37229568182492495" x2="0.7377500453937373" y2="0.05705112870391588" gradientTransform="matrix(4.141,0,0,9.167,11,7)" gradientUnits="userSpaceOnUse"><stop offset="0%" stop-opacity="1" style="stop-color:rgb(255,238,136)"/><stop offset="96.95652173913044%" stop-opacity="1" style="stop-color:rgb(0,136,0)"/></linearGradient><path d=" M 11 16 Q 13.038 16.334 13 16 C 12.962 15.666 12.297 15.271 12 14 C 11.703 12.729 11.458 12.88 12 12 C 12.542 11.12 14.847 9.514 15 9 C 15.153 8.486 15.22 8.214 15 8 C 14.78 7.786 13.598 9.001 13 9 Q 12.402 8.999 11 7 L 11 16 Z " fill="url(#_lgradient_0)"/><linearGradient id="_lgradient_1" x1="0.6158336779703545" y1="0.8710834267932681" x2="0.3485193062789153" y2="1.0605610829883765" gradientTransform="matrix(15,0,0,13.07,12,3)" gradientUnits="userSpaceOnUse"><stop offset="0%" stop-opacity="1" style="stop-color:rgb(0,136,0)"/><stop offset="100%" stop-opacity="1" style="stop-color:rgb(255,238,136)"/></linearGradient><path d=" M 12 3 Q 14.591 5.892 15 6 C 15.409 6.108 15.402 5.407 16 5 C 16.598 4.593 18.627 3.944 19 4 C 19.373 4.056 19.812 4.638 20 5 C 20.188 5.362 20.185 5.752 20 6 C 19.815 6.248 18.842 5.706 18 6 C 17.158 6.294 16.171 7.188 16 8 C 15.829 8.812 15.775 8.605 16 9 C 16.225 9.395 16.446 9.789 17 10 C 17.554 10.211 18.651 9.649 19 10 C 19.349 10.351 18.348 15.658 19 16 C 19.652 16.342 20.728 15.339 21 15 C 21.272 14.661 21.713 13.505 22 13 C 22.287 12.495 22.851 12.227 23 12 C 23.149 11.773 22.781 11.416 23 11 C 23.219 10.584 24.939 9.491 25 9 C 25.061 8.509 24.175 9.281 24 9 C 23.825 8.719 23.709 8.307 24 8 C 24.291 7.693 24.356 8.284 25 8 Q 25.644 7.716 27 6 L 26 3 L 12 3 Z " fill="url(#_lgradient_1)"/></g><path d=" M 19 24 L 19 22 L 17 22 L 21 14 L 25 22 L 23 22 L 23 28 L 19 28 L 4 28 L 4 24 L 19 24 Z " fill-rule="evenodd" fill="rgb(255,68,0)"/></g></svg>