<?xml version="1.0" encoding="UTF-8" standalone="no"?><!-- Generator: Gravit.io --><svg xmlns="http://www.w3.org/2000/svg" xmlns:xlink="http://www.w3.org/1999/xlink" style="isolation:isolate" viewBox="0 0 32 32" width="32pt" height="32pt"><defs><clipPath id="_clipPath_gsshEQgULh4zBu6njykrkyH7NynhQgzx"><rect width="32" height="32"/></clipPath></defs><g clip-path="url(#_clipPath_gsshEQgULh4zBu6njykrkyH7NynhQgzx)"><g><circle vector-effect="non-scaling-stroke" cx="12" cy="12.000000000000002" r="9" fill="rgb(0,68,187)"/><clipPath id="_clipPath_drAFjXWxQiN0NZFHLTBy1ihXEa5ug51x"><circle vector-effect="non-scaling-stroke" cx="12" cy="12.000000000000002" r="9" fill="rgb(255,255,255)"/></clipPath><g clip-path="url(#_clipPath_drAFjXWxQiN0NZFHLTBy1ihXEa5ug51x)"><g><linearGradient id="_lgradient_0" x1="0.653598036768889" y1="0.3722956818249247" x2="0.6926611740828462" y2="0.048358667827603674" gradientTransform="matrix(4.141,0,0,9.167,3,7)" gradientUnits="userSpaceOnUse"><stop offset="0%" stop-opacity="1" style="stop-color:rgb(255,238,136)"/><stop offset="96.95652173913044%" stop-opacity="1" style="stop-color:rgb(0,136,0)"/></linearGradient><path d=" M 3 16 Q 5.038 16.334 5 16 C 4.962 15.666 4.297 15.271 4 14 C 3.703 12.729 3.458 12.88 4 12 C 4.542 11.12 6.847 9.514 7 9 C 7.153 8.486 7.22 8.214 7 8 C 6.78 7.786 5.598 9.001 5 9 Q 4.402 8.999 3 7 L 3 16 Z " fill="url(#_lgradient_0)"/><linearGradient id="_lgradient_1" x1="0.6158336779703546" y1="0.8710779081426582" x2="0.34851930627891514" y2="1.0361761059073291" gradientTransform="matrix(15,0,0,13.07,4,3)" gradientUnits="userSpaceOnUse"><stop offset="0%" stop-opacity="1" style="stop-color:rgb(0,136,0)"/><stop offset="100%" stop-opacity="1" style="stop-color:rgb(255,238,136)"/></linearGradient><path d=" M 4 3 Q 6.591 5.892 7 6 C 7.409 6.108 7.402 5.407 8 5 C 8.598 4.593 10.627 3.944 11 4 C 11.373 4.056 11.812 4.638 12 5 C 12.188 5.362 12.185 5.752 12 6 C 11.815 6.248 10.842 5.706 10 6 C 9.158 6.294 8.171 7.188 8 8 C 7.829 8.812 7.775 8.605 8 9 C 8.225 9.395 8.446 9.789 9 10 C 9.554 10.211 10.651 9.649 11 10 C 11.349 10.351 10.348 15.658 11 16 C 11.652 16.342 12.728 15.339 13 15 C 13.272 14.661 13.713 13.505 14 13 C 14.287 12.495 14.851 12.227 15 12 C 15.149 11.773 14.781 11.416 15 11 C 15.219 10.584 16.939 9.491 17 9 C 17.061 8.509 16.175 9.281 16 9 C 15.825 8.719 15.709 8.307 16 8 C 16.291 7.693 16.356 8.284 17 8 Q 17.644 7.716 19 6 L 18 3 L 4 3 Z " fill="url(#_lgradient_1)"/></g></g></g><path d=" M 27 14 L 27 21 L 29 21 L 25 29 L 21 21 L 23 21 L 23 14 L 17 14 L 17 10 L 27 10 L 27 14 Z " fill-rule="evenodd" fill="rgb(0,68,187)"/></g></svg>