<?xml version="1.0" encoding="UTF-8" standalone="no"?><!-- Generator: Gravit.io --><svg xmlns="http://www.w3.org/2000/svg" xmlns:xlink="http://www.w3.org/1999/xlink" style="isolation:isolate" viewBox="0 0 24 24" width="24pt" height="24pt"><defs><clipPath id="_clipPath_8EdyTZFqbUzT5UwDGOjvwuZq0uErv0Qr"><rect width="24" height="24"/></clipPath></defs><g clip-path="url(#_clipPath_8EdyTZFqbUzT5UwDGOjvwuZq0uErv0Qr)"><path d=" M 5 8 L 19 8 L 19 19 L 17 20 L 7 20 L 5 19 L 5 8 Z " fill="rgb(68,68,68)"/><path d=" M 4 7 L 20 7 L 20 6 L 16 6 L 14 4 L 10 4 L 8 6 L 4 6" fill="rgb(68,68,68)"/><path d=" M 9.5 6 L 10.333 5 L 13.667 5 L 14.5 6 L 9.5 6 Z " fill="rgb(187,187,187)"/><rect x="11" y="9" width="2" height="9" transform="matrix(1,0,0,1,0,0)" fill="rgb(136,136,136)"/><rect x="7" y="9" width="2" height="9" transform="matrix(1,0,0,1,0,0)" fill="rgb(136,136,136)"/><rect x="15" y="9" width="2" height="9" transform="matrix(1,0,0,1,0,0)" fill="rgb(136,136,136)"/></g></svg>