<?xml version="1.0" encoding="UTF-8" standalone="no"?><!-- Generator: Gravit.io --><svg xmlns="http://www.w3.org/2000/svg" xmlns:xlink="http://www.w3.org/1999/xlink" style="isolation:isolate" viewBox="0 0 24 24" width="24pt" height="24pt"><defs><clipPath id="_clipPath_X3d90z8iuBEfcdgQED1ps2S5IG6T0q2M"><rect width="24" height="24"/></clipPath></defs><g clip-path="url(#_clipPath_X3d90z8iuBEfcdgQED1ps2S5IG6T0q2M)"><rect width="24" height="24" style="fill:rgb(68,68,68)"/><rect x="2" y="2" width="20" height="20" transform="matrix(1,0,0,1,0,0)" fill="rgb(187,187,187)"/><path d=" M 6 16 L 15 7 L 17 9 L 8 18 L 6 16 Z " fill="rgb(255,136,0)"/><path d=" M 4 20 L 5 18 L 6 19 L 4 20 Z " fill="rgb(68,68,68)"/><path d=" M 5 18 L 6 16 L 8 18 L 6 19 L 5 18 Z " fill="rgb(255,187,136)"/><path d=" M 15 7 L 16 6 L 18 8 L 17 9 L 15 7 Z " fill="rgb(238,238,238)"/><path d=" M 16 6 L 18 4 L 20 6 L 18 8 L 16 6 Z " fill="rgb(255,136,187)"/></g></svg>