<?xml version="1.0" encoding="UTF-8" standalone="no"?><!-- Generator: Gravit.io --><svg xmlns="http://www.w3.org/2000/svg" xmlns:xlink="http://www.w3.org/1999/xlink" style="isolation:isolate" viewBox="0 0 32 32" width="32pt" height="32pt"><defs><clipPath id="_clipPath_ts3ruddMqhOYlZq8aCWhTELVuNCbXmTt"><rect width="32" height="32"/></clipPath></defs><g clip-path="url(#_clipPath_ts3ruddMqhOYlZq8aCWhTELVuNCbXmTt)"><path d=" M 6 26 L 26 26 L 26 11 L 21 6 L 6 6 L 6 26 Z " fill="rgb(0,85,204)"/><rect x="10" y="16" width="12" height="9" transform="matrix(1,0,0,1,0,0)" fill="rgb(238,238,238)"/><rect x="10" y="25" width="12" height="1" transform="matrix(1,0,0,1,0,0)" fill="rgb(255,0,0)"/><rect x="12" y="6" width="8" height="6" transform="matrix(1,0,0,1,0,0)" fill="rgb(238,238,238)"/><rect x="10" y="6" width="2" height="6" transform="matrix(1,0,0,1,0,0)" fill="rgb(0,51,153)"/><rect x="17" y="7" width="2" height="4" transform="matrix(1,0,0,1,0,0)" fill="rgb(0,51,153)"/><rect x="11" y="17" width="10" height="1" transform="matrix(1,0,0,1,0,0)" fill="rgb(170,170,170)"/><rect x="11" y="19" width="10" height="1" transform="matrix(1,0,0,1,0,0)" fill="rgb(170,170,170)"/><rect x="11" y="21" width="10" height="1" transform="matrix(1,0,0,1,0,0)" fill="rgb(170,170,170)"/><rect x="11" y="23" width="10" height="1" transform="matrix(1,0,0,1,0,0)" fill="rgb(170,170,170)"/></g></svg>