<?xml version="1.0" encoding="UTF-8" standalone="no"?><!-- Generator: Gravit.io --><svg xmlns="http://www.w3.org/2000/svg" xmlns:xlink="http://www.w3.org/1999/xlink" style="isolation:isolate" viewBox="0 0 32 32" width="32pt" height="32pt"><defs><clipPath id="_clipPath_aM1xItMwcuU9uVJNZ1kSZ7omn4e7nc4I"><rect width="32" height="32"/></clipPath></defs><g clip-path="url(#_clipPath_aM1xItMwcuU9uVJNZ1kSZ7omn4e7nc4I)"><rect width="32" height="32" style="fill:rgb(68,68,68)"/><rect x="2" y="2" width="28" height="28" transform="matrix(1,0,0,1,0,0)" fill="rgb(187,187,187)"/><path d=" M 4 28 L 6 27 L 20 13 L 19 12 L 5 26 L 4 28 Z " fill="rgb(102,102,102)"/><path d=" M 5 7 L 4 7 L 4 9 L 6 11 L 9 11 L 21 23 L 21 26 L 23 28 L 25 28 L 25 27 L 23 25 L 23 23 L 25 23 L 27 25 L 28 25 L 28 23 L 26 21 L 23 21 L 11 9 L 11 6 L 9 4 L 7 4 L 7 5 L 9 7 L 9 9 L 7 9 L 5 7 Z " fill="rgb(68,68,68)"/><path d=" M 18.982 11.018 L 19 12 L 20 13 L 21 13 L 28 6 L 28 5 L 27 4 L 26 4 L 18.982 11.018 Z " fill="rgb(187,0,0)"/><path d=" M 27 4 L 28 5 L 28 4 L 27 4 Z " fill="rgb(102,102,102)"/></g></svg>