<?xml version="1.0" encoding="UTF-8" standalone="no"?><!-- Generator: Gravit.io --><svg xmlns="http://www.w3.org/2000/svg" xmlns:xlink="http://www.w3.org/1999/xlink" style="isolation:isolate" viewBox="0 0 64 64" width="64pt" height="64pt"><defs><clipPath id="_clipPath_xFNvasNcle0w81DaH4jpve8rCAacOCL8"><rect width="64" height="64"/></clipPath></defs><g clip-path="url(#_clipPath_xFNvasNcle0w81DaH4jpve8rCAacOCL8)"><rect width="64" height="64" style="fill:rgb(68,68,68)"/><rect x="2" y="2" width="60" height="60" transform="matrix(1,0,0,1,0,0)" fill="rgb(187,187,187)"/><path d=" M 54 18 L 58 18 L 52 6 L 46 18 L 50 18 L 50 46 L 36 46 L 36 50 L 54 50 L 54 18 Z " fill="rgb(0,68,187)"/><rect x="6" y="19" width="26" height="39" transform="matrix(1,0,0,1,0,0)" fill="rgb(68,68,68)"/><circle vector-effect="non-scaling-stroke" cx="7.5" cy="20.5" r="0.5" fill="rgb(102,102,102)"/><circle vector-effect="non-scaling-stroke" cx="7.5" cy="56.5" r="0.5" fill="rgb(102,102,102)"/><circle vector-effect="non-scaling-stroke" cx="30.5" cy="56.5" r="0.5" fill="rgb(102,102,102)"/><circle vector-effect="non-scaling-stroke" cx="30.5" cy="20.5" r="0.5" fill="rgb(102,102,102)"/><path d=" M 6.989 32.006 C 6.983 25.386 12.358 20.006 18.984 20 C 25.61 19.995 30.995 25.364 31 31.984 C 31.006 38.604 25.632 43.983 19.006 43.989 C 12.38 43.995 6.995 38.625 6.989 32.006 Z " fill="rgb(136,136,136)"/><circle vector-effect="non-scaling-stroke" cx="19" cy="32" r="2" fill="rgb(68,68,68)"/><circle vector-effect="non-scaling-stroke" cx="19" cy="32" r="1" fill="rgb(102,102,102)"/><path d=" M 28.829 45.172 C 30.39 46.733 30.39 49.268 28.829 50.829 C 27.268 52.39 24.733 52.39 23.172 50.829 L 14.687 36.687 L 28.829 45.172 Z " fill-rule="evenodd" fill="rgb(102,102,102)"/><circle vector-effect="non-scaling-stroke" cx="26" cy="48" r="1" fill="rgb(136,136,136)"/></g></svg>